<svg width="236" height="74" viewBox="0 0 236 74" fill="none" xmlns="http://www.w3.org/2000/svg">
<path d="M0 11C0 4.92487 4.92487 0 11 0H54C60.0751 0 65 4.92487 65 11V54C65 60.0751 60.0751 65 54 65H28.0093C23.7336 65 20.0321 67.6193 17.4919 71.0586C16.4755 72.4348 15.3986 73.5 14.5 73.5C13.2697 73.5 11.6444 70.7113 10.4801 68.3286C9.51465 66.3525 7.55457 65 5.35527 65C2.39764 65 0 62.6024 0 59.6447V11Z" fill="#0F0F0F"/>
<path d="M30.15 42.62V44H15.66V23H29.7V24.38H17.19V32.66H28.38V34.01H17.19V42.62H30.15ZM37.2584 24.38V33.35H48.4484V34.73H37.2584V44H35.7284V23H49.7684V24.38H37.2584Z" fill="white"/>
<path d="M90.76 36.52C90.76 36.552 90.736 36.928 90.688 37.648H81.232C81.424 38.32 81.792 38.84 82.336 39.208C82.896 39.56 83.592 39.736 84.424 39.736C85.048 39.736 85.584 39.648 86.032 39.472C86.496 39.296 86.96 39.008 87.424 38.608L89.824 41.104C88.56 42.512 86.712 43.216 84.28 43.216C82.76 43.216 81.424 42.928 80.272 42.352C79.12 41.776 78.224 40.976 77.584 39.952C76.96 38.928 76.648 37.768 76.648 36.472C76.648 35.192 76.952 34.048 77.56 33.04C78.184 32.016 79.04 31.216 80.128 30.64C81.216 30.064 82.44 29.776 83.8 29.776C85.096 29.776 86.272 30.048 87.328 30.592C88.384 31.12 89.216 31.896 89.824 32.92C90.448 33.928 90.76 35.128 90.76 36.52ZM83.824 33.016C83.12 33.016 82.528 33.216 82.048 33.616C81.584 34.016 81.288 34.56 81.16 35.248H86.488C86.36 34.56 86.056 34.016 85.576 33.616C85.112 33.216 84.528 33.016 83.824 33.016ZM98.0549 29.776C100.215 29.776 101.863 30.272 102.999 31.264C104.135 32.24 104.703 33.744 104.703 35.776V43H100.455V41.32C99.7989 42.584 98.5189 43.216 96.6149 43.216C95.6069 43.216 94.7349 43.04 93.9989 42.688C93.2629 42.336 92.7029 41.864 92.3189 41.272C91.9509 40.664 91.7669 39.976 91.7669 39.208C91.7669 37.976 92.2389 37.024 93.1829 36.352C94.1269 35.664 95.5829 35.32 97.5509 35.32H100.143C100.063 33.944 99.1429 33.256 97.3829 33.256C96.7589 33.256 96.1269 33.36 95.4869 33.568C94.8469 33.76 94.3029 34.032 93.8549 34.384L92.3189 31.288C93.0389 30.808 93.9109 30.44 94.9349 30.184C95.9749 29.912 97.0149 29.776 98.0549 29.776ZM97.8869 40.336C98.4149 40.336 98.8789 40.208 99.2789 39.952C99.6789 39.696 99.9669 39.32 100.143 38.824V37.696H98.1749C96.8469 37.696 96.1829 38.136 96.1829 39.016C96.1829 39.416 96.3349 39.736 96.6389 39.976C96.9429 40.216 97.3589 40.336 97.8869 40.336ZM112.309 43.216C111.221 43.216 110.149 43.096 109.093 42.856C108.037 42.6 107.189 42.272 106.549 41.872L107.917 38.752C108.509 39.12 109.213 39.416 110.029 39.64C110.845 39.848 111.653 39.952 112.453 39.952C113.189 39.952 113.709 39.88 114.013 39.736C114.333 39.576 114.493 39.352 114.493 39.064C114.493 38.776 114.301 38.576 113.917 38.464C113.549 38.336 112.957 38.216 112.141 38.104C111.101 37.976 110.213 37.808 109.477 37.6C108.757 37.392 108.133 37.008 107.605 36.448C107.077 35.888 106.813 35.104 106.813 34.096C106.813 33.264 107.061 32.528 107.557 31.888C108.053 31.232 108.773 30.72 109.717 30.352C110.677 29.968 111.821 29.776 113.149 29.776C114.093 29.776 115.029 29.872 115.957 30.064C116.885 30.256 117.661 30.528 118.285 30.88L116.917 33.976C115.765 33.336 114.517 33.016 113.173 33.016C112.453 33.016 111.925 33.104 111.589 33.28C111.253 33.44 111.085 33.656 111.085 33.928C111.085 34.232 111.269 34.448 111.637 34.576C112.005 34.688 112.613 34.808 113.461 34.936C114.533 35.096 115.421 35.28 116.125 35.488C116.829 35.696 117.437 36.08 117.949 36.64C118.477 37.184 118.741 37.952 118.741 38.944C118.741 39.76 118.493 40.496 117.997 41.152C117.501 41.792 116.765 42.296 115.789 42.664C114.829 43.032 113.669 43.216 112.309 43.216ZM134.176 29.992L128.56 43.528C127.904 45.128 127.104 46.248 126.16 46.888C125.216 47.544 124.064 47.872 122.704 47.872C122.016 47.872 121.32 47.76 120.616 47.536C119.928 47.328 119.368 47.048 118.936 46.696L120.52 43.504C120.776 43.744 121.08 43.928 121.432 44.056C121.8 44.2 122.168 44.272 122.536 44.272C122.968 44.272 123.32 44.184 123.592 44.008C123.88 43.832 124.12 43.552 124.312 43.168L118.744 29.992H123.424L126.616 37.936L129.832 29.992H134.176ZM147.307 30.472H150.403V33.88H147.427V43H142.867V33.88H140.971V30.472H142.867V30.136C142.867 28.552 143.339 27.296 144.283 26.368C145.243 25.44 146.579 24.976 148.291 24.976C148.867 24.976 149.427 25.032 149.971 25.144C150.515 25.256 150.963 25.424 151.315 25.648L150.187 28.864C149.739 28.608 149.283 28.48 148.819 28.48C148.339 28.48 147.963 28.624 147.691 28.912C147.435 29.2 147.307 29.624 147.307 30.184V30.472ZM158.476 43.216C157.084 43.216 155.828 42.928 154.708 42.352C153.588 41.776 152.708 40.976 152.068 39.952C151.444 38.928 151.132 37.768 151.132 36.472C151.132 35.192 151.444 34.04 152.068 33.016C152.708 31.992 153.58 31.2 154.684 30.64C155.804 30.064 157.068 29.776 158.476 29.776C159.884 29.776 161.148 30.064 162.268 30.64C163.388 31.2 164.26 31.992 164.884 33.016C165.508 34.024 165.82 35.176 165.82 36.472C165.82 37.768 165.508 38.928 164.884 39.952C164.26 40.976 163.388 41.776 162.268 42.352C161.148 42.928 159.884 43.216 158.476 43.216ZM158.476 39.592C159.276 39.592 159.932 39.32 160.444 38.776C160.956 38.216 161.212 37.448 161.212 36.472C161.212 35.512 160.956 34.76 160.444 34.216C159.932 33.672 159.276 33.4 158.476 33.4C157.676 33.4 157.02 33.672 156.508 34.216C155.996 34.76 155.74 35.512 155.74 36.472C155.74 37.448 155.996 38.216 156.508 38.776C157.02 39.32 157.676 39.592 158.476 39.592ZM174.461 43.216C173.069 43.216 171.813 42.928 170.693 42.352C169.573 41.776 168.693 40.976 168.053 39.952C167.429 38.928 167.117 37.768 167.117 36.472C167.117 35.192 167.429 34.04 168.053 33.016C168.693 31.992 169.565 31.2 170.669 30.64C171.789 30.064 173.053 29.776 174.461 29.776C175.869 29.776 177.133 30.064 178.253 30.64C179.373 31.2 180.245 31.992 180.869 33.016C181.493 34.024 181.805 35.176 181.805 36.472C181.805 37.768 181.493 38.928 180.869 39.952C180.245 40.976 179.373 41.776 178.253 42.352C177.133 42.928 175.869 43.216 174.461 43.216ZM174.461 39.592C175.261 39.592 175.917 39.32 176.429 38.776C176.941 38.216 177.197 37.448 177.197 36.472C177.197 35.512 176.941 34.76 176.429 34.216C175.917 33.672 175.261 33.4 174.461 33.4C173.661 33.4 173.005 33.672 172.493 34.216C171.981 34.76 171.725 35.512 171.725 36.472C171.725 37.448 171.981 38.216 172.493 38.776C173.005 39.32 173.661 39.592 174.461 39.592ZM197.741 25.192V43H193.397V41.704C192.549 42.712 191.277 43.216 189.581 43.216C188.397 43.216 187.317 42.944 186.341 42.4C185.365 41.84 184.589 41.048 184.013 40.024C183.453 39 183.173 37.816 183.173 36.472C183.173 35.128 183.453 33.952 184.013 32.944C184.589 31.92 185.365 31.136 186.341 30.592C187.317 30.048 188.397 29.776 189.581 29.776C191.133 29.776 192.333 30.224 193.181 31.12V25.192H197.741ZM190.541 39.592C191.325 39.592 191.973 39.32 192.485 38.776C192.997 38.216 193.253 37.448 193.253 36.472C193.253 35.512 192.997 34.76 192.485 34.216C191.989 33.672 191.341 33.4 190.541 33.4C189.741 33.4 189.085 33.672 188.573 34.216C188.061 34.76 187.805 35.512 187.805 36.472C187.805 37.448 188.061 38.216 188.573 38.776C189.085 39.32 189.741 39.592 190.541 39.592Z" fill="black"/>
</svg>
